<svg width="263" height="37" viewBox="0 0 263 37" fill="none" xmlns="http://www.w3.org/2000/svg">
<g clip-path="url(#clip0_62_2923)">
<path d="M44.5808 10.8868C44.2181 19.2174 40.5692 28.2992 30.7235 30.9964C20.8778 33.6936 10.8358 30.5739 8.26231 22.5847C5.68886 14.5955 11.732 5.50088 21.7612 2.27019C31.7904 -0.960495 44.9436 2.50065 44.5808 10.8825V10.8868Z" fill="white"/>
<path d="M21.5137 13.183C21.2833 13.5713 20.9291 13.8829 20.5151 14.0579C20.1011 14.2328 19.6317 14.2755 19.1921 14.1731C18.9403 14.1133 18.6928 14.2713 18.633 14.5188C18.5733 14.7706 18.7312 15.0181 18.9787 15.0779C19.2049 15.1333 19.4396 15.1589 19.6743 15.1589C20.0883 15.1589 20.498 15.0779 20.8779 14.9157C21.4711 14.6639 21.9832 14.2158 22.3118 13.661C22.4441 13.439 22.3716 13.1531 22.1496 13.0251C21.9277 12.8928 21.6418 12.9653 21.5137 13.1872V13.183Z" fill="#412D22"/>
<path d="M27.4331 10.8953C27.2026 11.2836 26.8484 11.5952 26.4344 11.7701C26.0204 11.9451 25.551 11.9878 25.1114 11.8854C24.8596 11.8256 24.6121 11.9835 24.5523 12.2311C24.4926 12.4829 24.6505 12.7304 24.898 12.7901C25.1242 12.8456 25.3589 12.8712 25.5937 12.8712C26.0076 12.8712 26.4173 12.7901 26.7972 12.628C27.3904 12.3762 27.9025 11.928 28.2311 11.369C28.3634 11.147 28.2909 10.8611 28.069 10.7331C27.847 10.6008 27.5611 10.6733 27.4331 10.8953Z" fill="#412D22"/>
<path d="M53.1205 17.3611C53.1205 17.3611 51.7676 5.85955 37.7736 1.58753C25.4313 -2.18089 16.2258 1.81373 14.1858 2.73129C13.9084 2.85506 13.695 2.89773 13.3621 3.05137C6.43557 6.22658 1.86481 12.3977 0.853358 14.8346C-0.179437 17.327 -0.892151 22.5977 2.49217 28.15C4.13952 30.8558 7.39155 32.8189 10.2936 34.1163C14.8473 36.1563 19.9345 36.7367 24.8125 35.6869C27.8426 35.0339 30.0661 34.1846 30.7404 33.8645C31.6238 33.4463 32.7078 32.7165 33.2754 32.3239C33.5913 32.1019 33.8729 31.8373 34.0863 31.5173C34.7905 30.4845 34.0308 30.318 33.4077 30.3266C33.0919 30.3308 32.7804 30.3863 32.4774 30.4759L30.4801 31.0606C30.2411 31.1332 29.9893 31.1801 29.7417 31.1886C28.7986 31.2185 29.0632 30.685 29.379 30.2967C29.5582 30.0705 29.7759 29.8784 30.0149 29.7163L33.9113 27.0447C34.1418 26.8868 34.3552 26.7075 34.5387 26.4941C35.2727 25.6534 34.6923 25.4186 34.0735 25.3717C33.587 25.3333 33.0962 25.4186 32.6395 25.5936L28.9607 26.9977C28.79 27.0617 28.6151 27.1172 28.4315 27.1514C27.5567 27.3093 27.6591 26.8654 27.8767 26.4856C28.0346 26.2124 28.2566 25.982 28.5126 25.7985L31.8372 23.4085C32.2811 23.0885 32.6865 22.7214 33.0322 22.2989C34.1119 20.9717 33.2498 20.8009 32.439 20.8607C31.9354 20.8991 31.4403 21.0357 30.9794 21.2363L27.4414 22.794C27.3049 22.8537 27.164 22.9092 27.0189 22.9562C25.9136 23.2848 25.7557 22.7598 25.8069 22.2989C25.8368 22.0002 25.9605 21.7228 26.1398 21.4795L27.0573 20.2376C28.1926 18.4964 27.164 18.4793 26.3873 18.65C26.0117 18.7311 25.6575 18.8805 25.3289 19.0768C22.4354 20.7881 20.0796 21.7356 20.0796 21.7356C15.9783 23.511 12.7006 22.0685 12.1245 21.7825C11.9836 21.8081 11.8343 21.8209 11.6849 21.8209C10.4899 21.8209 9.52542 21.0143 9.52542 20.0157C9.52542 19.3456 9.96073 18.7652 10.6094 18.4537C11.4929 15.6498 15.8758 11.6637 16.5501 10.6565C17.2799 9.57249 17.6 8.87685 17.8305 6.41863C17.9798 4.83956 18.8206 4.82676 19.401 5.01881C19.6784 5.1127 19.9302 5.26633 20.1521 5.45412L21.1166 6.28206C21.4154 6.53812 21.7013 6.81126 21.9872 7.0844C23.2932 8.33058 23.4169 6.41009 23.4169 6.41009L23.5279 4.77554C23.5578 4.35304 23.6858 3.94333 23.9333 3.60191C24.8808 2.29598 26.319 3.50375 27.3561 4.74994C28.5425 6.17537 29.4942 6.17537 32.1018 6.93502C34.7137 7.69468 38.034 9.214 40.1252 13.6781C42.2121 18.1421 40.3855 22.6105 40.2447 23.4982C40.138 24.1639 39.1905 25.8454 38.7211 26.6435C38.5162 26.9892 38.4053 27.3861 38.4223 27.7915C38.465 28.7603 38.99 28.9182 39.4381 28.867C39.7795 28.8286 40.0953 28.6664 40.3428 28.4317L41.461 27.3861C41.6445 27.2154 41.8579 27.0788 42.0969 27.002C42.7584 26.7929 42.7456 27.2623 42.6474 27.6421C42.5919 27.8555 42.5023 28.0561 42.3914 28.2439C41.7811 29.281 40.2233 31.4746 39.5704 32.3836C39.3186 32.7336 39.1607 33.1475 39.1351 33.5786C39.0796 34.6199 39.8094 34.6114 40.4282 34.4236C40.9446 34.2657 41.4055 33.9669 41.7811 33.5829C42.6474 32.6952 44.2222 30.8643 44.7813 30.2028C44.9435 30.0107 45.1398 29.8486 45.366 29.7419C46.1384 29.3749 45.9848 30.1687 45.861 30.5826C45.7415 30.9753 44.0088 33.7066 43.4113 34.6455C43.2406 34.9101 43.1083 35.1961 43.0272 35.5033C42.7285 36.6343 43.3559 36.694 43.9107 36.5575C44.3332 36.4508 44.7215 36.2331 45.0416 35.9344C46.0403 35.0083 47.6108 33.028 48.1699 32.4391C48.3406 32.2598 48.4857 32.1233 48.6905 32.0337C49.1685 31.8245 49.2326 32.1532 49.2069 32.4476C49.1899 32.6354 49.1387 32.8189 49.0618 32.9939L48.0803 35.2003C47.9266 35.546 47.8541 35.9258 47.8967 36.3057C48.0034 37.2488 48.7034 36.9928 49.2496 36.6386C49.638 36.3868 49.9666 36.0539 50.244 35.6826C55.5019 28.628 53.1077 17.3569 53.1077 17.3569L53.1205 17.3611Z" fill="#DD694A"/>
<path d="M9.52563 20.0201C9.52563 21.0188 10.4944 21.8254 11.6851 21.8254C11.8345 21.8254 11.9839 21.8126 12.1247 21.7869C13.1063 21.6162 13.8446 20.8907 13.8446 20.0201C13.8446 19.0214 12.8758 18.2148 11.6851 18.2148C11.2925 18.2148 10.9255 18.3045 10.6096 18.4581C9.96095 18.7697 9.52563 19.3543 9.52563 20.0201Z" fill="#EAB0C6"/>
<path d="M61.5922 18.6368H74.4295V16.9638H66.133C64.1528 16.9638 63.0603 15.8713 63.0603 13.891V6.31152H91.2615V8.87217H69.2741V14.4032H91.2615V16.9638H80.7117V18.6368H92.7979V21.2316H61.5922V18.6368ZM68.2498 22.6655H86.8231C90.3739 22.6655 92.2858 24.3385 92.2858 27.4454C92.2858 30.5523 90.3739 32.2253 86.8231 32.2253H68.2498C64.6991 32.2253 62.7871 30.5523 62.7871 27.4454C62.7871 24.3385 64.6991 22.6655 68.2498 22.6655ZM69.2741 27.2406V27.6503C69.2741 28.9818 69.9911 29.6988 71.3226 29.6988H83.7845C85.116 29.6988 85.833 28.9818 85.833 27.6503V27.2406C85.833 25.909 85.116 25.192 83.7845 25.192H71.3226C69.9911 25.192 69.2741 25.909 69.2741 27.2406Z" fill="#362E2C"/>
<path d="M95.5293 17.8174H126.53V20.4122H113.966V21.8803H124.687V27.9234H103.621V29.3574H124.755V32.0546H99.4556C98.1241 32.0546 97.4071 31.3376 97.4071 30.0061V25.6359H118.473V24.3385H97.3047V21.8803H108.094V20.4122H95.5293V17.8174ZM125.062 6.31152V16.3493H101.094C98.4314 16.3493 96.9974 14.9153 96.9974 12.2522V6.31152H125.062ZM104.577 13.7545H118.848V8.90632H103.211V12.3888C103.211 13.2765 103.689 13.7545 104.577 13.7545Z" fill="#362E2C"/>
<path d="M129.876 29.0842H142.338V24.1336H148.62V29.0842H161.082V31.679H129.876V29.0842ZM159.102 6.31152V22.529H135.953C133.29 22.529 131.856 21.095 131.856 18.2612V6.31152H138.07V11.3645H152.888V6.31152H159.102ZM139.436 19.8318H152.888V14.0959H138.07V18.4661C138.07 19.3538 138.548 19.8318 139.436 19.8318Z" fill="#362E2C"/>
<path d="M164.018 29.0845H176.48V24.1339H182.762V29.0845H195.224V31.6792H164.018V29.0845ZM165.486 16.3495C165.486 12.5939 167.535 10.5453 171.29 10.5453H187.952C191.707 10.5453 193.756 12.5939 193.756 16.3495V17.0323C193.756 20.7879 191.707 22.8365 187.952 22.8365H171.29C167.535 22.8365 165.486 20.7879 165.486 17.0323V16.3495ZM165.554 6.85801H176.514V4.74121H182.728V6.85801H193.687V9.48695H165.554V6.85801ZM171.734 15.0521V18.3297C171.734 19.6613 172.451 20.3782 173.783 20.3782H185.425C186.757 20.3782 187.474 19.6613 187.474 18.3297V15.0521C187.474 13.7206 186.757 13.0036 185.425 13.0036H173.783C172.451 13.0036 171.734 13.7206 171.734 15.0521Z" fill="#362E2C"/>
<path d="M201.984 8.94106C202.496 7.16567 203.589 6.31212 205.398 6.31212H215.538V13.0381H217.826V5.9707H222.845V24.9537H217.826V15.8036H215.538V21.8809H210.007V8.90691H208.369C207.754 8.90691 207.378 9.21419 207.208 9.79461L203.793 21.8809H198.297L201.984 8.94106ZM205.296 23.3831V29.4604H229.707V32.0552H201.13C199.799 32.0552 199.082 31.3382 199.082 30.0067V23.3831H205.296ZM224.313 5.9707H229.502V24.9537H224.313V5.9707Z" fill="#362E2C"/>
<path d="M233.292 6.31212H253.197V8.90691H239.506V17.0327H251.285V19.6275H239.506V29.2214H253.197V31.8162H236.365C234.385 31.8162 233.292 30.7236 233.292 28.7434V6.31212ZM263 5.9707V32.0552H256.786V19.6616H252.826V16.8961H256.786V5.9707H263Z" fill="#362E2C"/>
</g>
<defs>
<clipPath id="clip0_62_2923">
<rect width="263" height="36.963" fill="white"/>
</clipPath>
</defs>
</svg>
